<?xml version="1.0" standalone="no"?>
<!DOCTYPE svg PUBLIC "-//W3C//DTD SVG 20010904//EN"
 "http://www.w3.org/TR/2001/REC-SVG-20010904/DTD/svg10.dtd">
<svg version="1.0" xmlns="http://www.w3.org/2000/svg"
 width="225.000000pt" height="225.000000pt" viewBox="0 0 225.000000 225.000000"
 preserveAspectRatio="xMidYMid meet">

<g transform="translate(0.000000,225.000000) scale(0.100000,-0.100000)"
fill="#000000" stroke="none">
<path d="M280 1125 l0 -735 120 0 120 0 0 735 0 735 -120 0 -120 0 0 -735z"/>
<path d="M770 1555 l0 -305 115 0 115 0 0 305 0 305 -115 0 -115 0 0 -305z"/>
<path d="M1250 1478 c0 -413 5 -458 53 -540 33 -57 106 -124 165 -151 38 -18
66 -22 147 -22 89 0 106 3 157 28 72 35 149 119 180 195 22 56 23 65 26 465
l3 407 -120 0 -121 0 0 -384 c0 -382 0 -383 -23 -417 -56 -84 -166 -78 -212
11 -13 24 -15 93 -15 410 l0 380 -120 0 -120 0 0 -382z"/>
<path d="M770 695 l0 -305 115 0 115 0 0 305 0 305 -115 0 -115 0 0 -305z"/>
</g>
</svg>
